<?xml version="1.0" standalone="no"?>
<!DOCTYPE svg PUBLIC "-//W3C//DTD SVG 20010904//EN"
 "http://www.w3.org/TR/2001/REC-SVG-20010904/DTD/svg10.dtd">
<svg version="1.0" xmlns="http://www.w3.org/2000/svg"
 width="260.000000pt" height="260.000000pt" viewBox="0 0 260.000000 260.000000"
 preserveAspectRatio="xMidYMid meet">
<metadata>
Created by potrace 1.11, written by Peter Selinger 2001-2013
</metadata>
<g transform="translate(0.000000,260.000000) scale(0.100000,-0.100000)"
fill="#000000" stroke="none">
<path d="M0 1300 l0 -1300 1300 0 1300 0 0 1300 0 1300 -1300 0 -1300 0 0
-1300z m2590 0 l0 -1290 -1290 0 -1290 0 0 1290 0 1290 1290 0 1290 0 0 -1290z"/>
<path d="M290 1525 l0 -535 150 0 150 0 0 195 0 195 170 0 170 0 0 -195 0
-195 150 0 150 0 0 535 0 535 -150 0 -150 0 0 -195 0 -195 -170 0 -170 0 0
195 0 195 -150 0 -150 0 0 -535z"/>
<path d="M1430 1525 l0 -535 150 0 150 0 0 170 0 170 48 0 47 0 85 -170 85
-170 167 0 c93 0 168 3 168 6 0 3 -48 92 -107 197 -78 139 -103 192 -93 195
32 11 112 98 137 151 25 50 28 67 28 156 0 87 -3 107 -26 155 -32 69 -79 123
-134 156 -76 44 -155 54 -442 54 l-263 0 0 -535z m505 251 c63 -27 76 -106 26
-157 -29 -28 -32 -29 -130 -29 l-101 0 0 93 c0 52 3 97 7 100 12 13 163 7 198
-7z"/>
<path d="M1810 860 c0 -43 -3 -50 -20 -50 -16 0 -20 -7 -20 -35 0 -28 4 -35
19 -35 16 0 19 -9 23 -75 5 -98 24 -120 103 -120 65 0 81 12 68 52 -8 21 -16
27 -33 25 -36 -4 -50 16 -50 69 l0 49 40 0 c39 0 40 1 40 35 0 34 -1 35 -40
35 l-40 0 0 50 0 50 -45 0 -45 0 0 -50z"/>
<path d="M80 726 l0 -176 50 0 50 0 0 49 0 49 56 7 c41 5 64 14 87 35 29 25
32 34 32 84 0 49 -4 59 -32 88 -32 32 -35 33 -138 36 l-105 4 0 -176z m175 49
c0 -27 -3 -30 -37 -33 -38 -3 -38 -3 -38 33 0 36 0 36 38 33 34 -3 37 -6 37
-33z"/>
<path d="M512 804 c-12 -8 -22 -10 -22 -5 0 6 -20 11 -45 11 l-45 0 0 -130 0
-130 45 0 45 0 0 73 c0 84 18 113 64 105 22 -4 25 -1 28 36 6 56 -23 73 -70
40z"/>
<path d="M671 803 c-52 -27 -76 -66 -76 -123 0 -81 55 -133 140 -133 77 0 132
47 141 120 13 105 -110 186 -205 136z m113 -105 c18 -52 -44 -89 -86 -51 -21
18 -23 36 -7 64 8 16 19 19 47 17 30 -2 38 -8 46 -30z"/>
<path d="M1261 802 c-52 -26 -75 -63 -75 -121 0 -108 99 -168 209 -127 25 10
45 20 45 23 0 3 -7 17 -16 33 -16 26 -18 26 -43 14 -31 -17 -56 -18 -82 -4
-39 21 -18 30 71 30 l90 0 0 33 c0 73 -62 137 -135 137 -16 0 -45 -8 -64 -18z
m97 -64 c21 -21 13 -28 -33 -28 -25 0 -45 4 -45 8 0 15 24 32 45 32 12 0 26
-5 33 -12z"/>
<path d="M1551 802 c-68 -36 -90 -138 -46 -206 31 -47 103 -67 162 -45 28 10
73 47 73 58 0 4 -16 15 -35 25 -34 19 -35 19 -56 0 -19 -17 -23 -17 -47 -3
-38 21 -38 77 0 98 24 14 28 14 48 -4 19 -18 22 -18 55 -2 41 20 43 26 13 55
-48 44 -112 53 -167 24z"/>
<path d="M2081 803 c-52 -27 -76 -66 -76 -123 0 -81 55 -133 140 -133 77 0
132 47 141 120 13 105 -110 186 -205 136z m113 -105 c18 -52 -44 -89 -86 -51
-21 18 -23 36 -7 64 8 16 19 19 47 17 30 -2 38 -8 46 -30z"/>
<path d="M2370 802 c-77 -38 -63 -113 28 -146 29 -10 52 -22 52 -27 0 -14 -48
-11 -79 5 -26 14 -28 13 -45 -15 -10 -17 -16 -32 -14 -33 22 -20 77 -36 122
-36 69 0 109 29 109 78 0 42 -24 67 -79 82 -24 7 -47 17 -50 21 -9 16 26 22
54 10 23 -11 28 -10 44 11 24 32 23 37 -17 54 -46 19 -82 18 -125 -4z"/>
<path d="M936 684 c30 -69 54 -132 54 -139 0 -19 -37 -38 -61 -32 -15 4 -21
-2 -28 -26 -24 -89 116 -68 164 23 13 26 115 288 115 296 0 3 -21 4 -47 2
l-46 -3 -21 -62 c-12 -34 -23 -64 -26 -67 -4 -3 -17 26 -30 64 l-24 70 -52 0
-52 0 54 -126z"/>
</g>
</svg>
