<?xml version="1.0" encoding="UTF-8" standalone="no"?>
<!DOCTYPE svg  PUBLIC '-//W3C//DTD SVG 1.1//EN'  'http://www.w3.org/Graphics/SVG/1.1/DTD/svg11.dtd'>
<svg xmlns="http://www.w3.org/2000/svg">
<defs>
<font id="TitilliumWeb-Light" horiz-adv-x="560">
<font-face underline-position="-80" font-weight="300" descent="-200" panose-1="0 0 4 0 0 0 0 0 0 0" units-per-em="1000" unicode-range="U+0020-25CA" bbox="-224 -237 1068 929" x-height="500" underline-thickness="30" font-family="TitilliumWeb" ascent="800" cap-height="695"/>
<missing-glyph horiz-adv-x="1000"/>
<glyph glyph-name=".notdef" horiz-adv-x="1000"/>
<glyph glyph-name=".null" horiz-adv-x="0"/>
<glyph glyph-name="nonmarkingreturn" horiz-adv-x="1000"/>
<glyph glyph-name="space" horiz-adv-x="220" unicode=" "/>
<glyph glyph-name="exclam" horiz-adv-x="239" unicode="!" d="M91 223l-3 472h63l-4 -472h-56zM87 0v100h66v-100h-66z"/>
<glyph glyph-name="quotedbl" horiz-adv-x="364" unicode='&quot;' d="M127 477h-54l-4 218h62zM291 477h-55l-3 218h62z"/>
<glyph glyph-name="numbersign" d="M363 232v201h-167v-201h167zM533 180h-114v-180h-56v180h-167v-180h-56v180h-114v52h114v201h-114v52h114v182h56v-182h167v182h56v-182h114v-52h-114v-201h114v-52z" unicode="#"/>
<glyph glyph-name="dollar" d="M281 45q149 0 149 133q0 65 -28 89t-96 39l-33 -261h8zM132 501q0 -63 30 -88t107 -41l32 245h-16q-153 0 -153 -116zM490 193q0 -105 -52 -153t-155 -48h-17l-15 -115q-45 3 -45 7l14 111l-143 15l7 51q77 -10 143 -14l35 268q-50 9 -82 21t-58 32q-50 37 -50 129 q0 173 209 173q17 0 27 -1l16 126h45l-17 -129l123 -14l-4 -51q-68 8 -126 13l-32 -251q95 -19 136 -55t41 -115z" unicode="$"/>
<glyph glyph-name="percent" d="M365 131q1 -97 57 -97t56 96q0 48 -13 70t-43 23q-30 0 -44 -22q-13 -22 -13 -70zM314 131q0 136 108 136t107 -137q0 -70 -29 -105t-79 -35q-51 0 -79 35t-28 106zM83 534q0 -97 56 -97q31 -1 44 23t13 72t-13 72q-13 22 -43 22t-44 -22q-13 -22 -13 -70zM139 670 q107 0 107 -137q0 -70 -28 -105t-79 -35t-79 35t-28 106q0 136 107 136zM162 -3l198 679l42 -13l-198 -678z" unicode="%"/>
<glyph glyph-name="ampersand" horiz-adv-x="685" unicode="&amp;" d="M207 545q0 -69 45 -114l31 -32q75 31 105 61t30 86q0 100 -106 100t-105 -101zM281 45q127 0 178 103l-221 219q-74 -21 -104 -56t-30 -109q0 -157 177 -157zM190 658q44 40 125 40t123 -40t41 -109q0 -71 -36 -111t-122 -76l164 -163q9 26 19 79t12 92l59 -1 q-13 -130 -45 -209l133 -127l-37 -41l-125 119q-67 -121 -217 -121q-132 0 -186 54t-54 152q0 96 36 140t122 70q-34 40 -44 70t-11 77q-1 65 43 105z"/>
<glyph glyph-name="quotesingle" horiz-adv-x="200" unicode="&apos;" d="M72 477l-3 218h63l-6 -218h-54z"/>
<glyph glyph-name="parenleft" horiz-adv-x="252" unicode="(" d="M118 302q0 -84 24 -192q24 -106 48 -170l23 -65h-58q-11 24 -28 66q-17 43 -45 155t-28 188t10 144t26 122q29 110 54 174l11 26h58q-35 -92 -65 -228t-30 -220z"/>
<glyph glyph-name="parenright" horiz-adv-x="252" unicode=")" d="M199 301q1 -93 -25 -199t-51 -167l-25 -60h-58q35 86 65 214q30 129 30 213q1 84 -23 196t-48 182l-24 70h58q11 -26 28 -72t45 -165t28 -212z"/>
<glyph glyph-name="asterisk" horiz-adv-x="419" unicode="*" d="M369 514h-134l41 -127l-42 -13l-42 128l-108 -79l-26 35l109 79l-108 79l27 36l108 -79l41 127l43 -14l-41 -128h132v-44z"/>
<glyph glyph-name="plus" d="M57 223v56h193v201h57v-201h196v-56h-196v-203h-57v203h-193z" unicode="+"/>
<glyph glyph-name="comma" horiz-adv-x="213" unicode="," d="M38 -123l44 222h67l-61 -222h-50z"/>
<glyph glyph-name="hyphen" horiz-adv-x="445" unicode="-" d="M71 249v56h304v-56h-304z"/>
<glyph glyph-name="period" horiz-adv-x="206" unicode="." d="M70 0v101h66v-101h-66z"/>
<glyph glyph-name="slash" horiz-adv-x="398" unicode="/" d="M32 11l280 695l54 -21l-279 -694z"/>
<glyph glyph-name="zero" d="M377 590q-35 25 -97 25t-98 -24q-75 -51 -75 -274q0 -155 42 -213t131 -58q58 0 94 22q78 48 78 250q0 220 -75 272zM150 640q50 30 120 30t111 -16q42 -16 73 -56q62 -76 62 -268t-60 -266t-177 -74q-118 0 -177 72t-59 256q0 135 29 214q28 78 78 108z" unicode="0"/>
<glyph glyph-name="one" d="M381 660v-660h-61v592l-176 -118l-29 48l208 138h58z" unicode="1"/>
<glyph glyph-name="two" d="M491 0h-421v52l206 218q50 54 72 80t42 64q18 38 18 77q0 67 -38 95t-115 28q-66 0 -147 -18l-27 -6l-5 53q94 27 194 27t150 -42q52 -42 52 -132q0 -69 -31 -120t-104 -124l-192 -198h346v-54z" unicode="2"/>
<glyph glyph-name="three" d="M75 645q93 25 199 25t154 -40t47 -129q0 -99 -92 -145l-12 -6q61 -19 91 -53t30 -111q0 -100 -52 -148t-160 -48q-94 0 -186 20l-30 6l6 52q107 -22 205 -22q153 0 153 137q0 128 -145 135h-134v54h133q45 0 87 35t42 95q-1 60 -33 86t-111 27q-79 0 -161 -16l-25 -5z " unicode="3"/>
<glyph glyph-name="four" d="M370 0v134h-330v48l194 478h68l-195 -471h263v211h62v-211h89v-55h-89v-134h-62z" unicode="4"/>
<glyph glyph-name="five" d="M473 660v-57h-327l-18 -233q80 44 164 44q210 0 210 -194q0 -112 -58 -170t-162 -58q-85 0 -184 20l-32 7l8 51q113 -23 195 -23q81 0 125 44q44 43 44 123t-40 112t-112 33q-38 1 -79 -11t-63 -24l-23 -11l-46 8l19 339h379z" unicode="5"/>
<glyph glyph-name="six" d="M289 355q-36 -1 -79 -11t-68 -21l-25 -11q3 -266 168 -266q80 0 122 42t42 118q0 149 -160 149zM478 604q-86 10 -174 10t-137 -64t-49 -182l26 10q85 32 149 32q220 0 220 -202q0 -104 -59 -161t-169 -57q-231 0 -231 344q0 172 66 254t187 82q68 0 151 -12l26 -3z" unicode="6"/>
<glyph glyph-name="seven" d="M79 604v56h407v-88l-259 -582l-59 20l255 568v26h-344z" unicode="7"/>
<glyph glyph-name="eight" d="M450 495q0 119 -170 119t-171 -118q1 -50 27 -78t83 -48h110q61 16 91 46t30 79zM278 47q86 1 134 31t49 98t-33 96t-99 44h-110q-60 -16 -90 -48t-30 -91q0 -130 179 -130zM278 670q110 0 174 -42t64 -127q0 -63 -28 -97t-92 -58q64 -24 97 -62t33 -105 q0 -189 -248 -189q-110 0 -178 42t-68 136q0 73 30 110t92 68q-57 26 -84 60t-27 96q0 84 62 126t173 42z" unicode="8"/>
<glyph glyph-name="nine" d="M262 307q32 0 77 10t74 20l29 10q-5 267 -172 267q-74 0 -118 -44t-44 -119q0 -144 154 -144zM76 57q87 -11 178 -11q185 0 187 246l-29 -10q-91 -30 -154 -30q-214 0 -214 199q0 99 62 159t164 60q119 0 177 -90t58 -264t-65 -250t-193 -76q-75 0 -151 12l-26 4z" unicode="9"/>
<glyph glyph-name="colon" horiz-adv-x="207" unicode=":" d="M70 0v101h66v-101h-66zM70 330v102h66v-102h-66z"/>
<glyph glyph-name="semicolon" horiz-adv-x="241" unicode=";" d="M92 330v102h66v-102h-66zM96 99h69l-62 -222h-50z"/>
<glyph glyph-name="less" d="M479 423l-359 -171l359 -174v-64l-420 210v54l420 208v-63z" unicode="&lt;"/>
<glyph glyph-name="equal" d="M65 133v56h429v-56h-429zM65 312v56h429v-56h-429z" unicode="="/>
<glyph glyph-name="greater" d="M439 252l-359 171v63l420 -208v-54l-420 -210v64z" unicode="&gt;"/>
<glyph glyph-name="question" horiz-adv-x="449" unicode="?" d="M158 1v100h66v-100h-66zM406 545q0 -63 -18 -97t-72 -79q-54 -46 -76 -74t-22 -62v-36h-52q-9 25 -9 57q1 32 25 65q24 31 76 77t70 73q17 27 17 79t-35 77t-110 25q-50 0 -128 -18l-28 -7l-6 51q106 29 167 29q101 1 151 -37t50 -123z"/>
<glyph glyph-name="at" horiz-adv-x="977" unicode="@" d="M629 98q-4 16 -7 82t-3 107v143q-65 23 -114 23q-89 0 -121 -50t-32 -160q0 -123 38 -163q33 -33 85 -33t154 51zM930 305v-15q0 -221 -66 -270q-24 -18 -47 -23t-54 -5t-53 6t-34 16q-23 19 -30 40q-42 -24 -94 -42t-83 -19q-31 0 -52 4t-45 19t-42 42q-38 61 -38 191 t46 194t159 64q49 0 103 -20l19 -7v17h60v-195q0 -179 13 -218q4 -14 14 -26t22 -13q12 -2 34 -2q22 -1 36 3t29 18t23 39q18 64 18 187v16q0 190 -84 276t-282 86t-292 -95t-94 -317t90 -313t298 -91l143 10l3 -54q-96 -10 -146 -10q-116 0 -196 22t-139 74 q-115 102 -115 356t112 362t338 109q224 1 325 -101t101 -315z"/>
<glyph glyph-name="A" horiz-adv-x="594" unicode="A" d="M270 641l-113 -394h280l-113 394h-54zM25 0l200 695h145l199 -695h-61l-56 192h-310l-55 -192h-62z"/>
<glyph glyph-name="B" horiz-adv-x="617" unicode="B" d="M332 640h-183v-259h192q71 -1 103 33t32 100t-36 96t-108 30zM342 327h-193v-272h199q73 0 112 31t39 109q0 132 -157 132zM87 695h247q205 0 205 -175q0 -123 -92 -162q115 -36 115 -165q0 -105 -54 -149t-159 -44h-262v695z"/>
<glyph glyph-name="C" horiz-adv-x="544" unicode="C" d="M502 11q-103 -21 -176 -21q-74 0 -118 16t-72 43q-28 28 -44 73q-30 82 -30 223q0 226 72 299q59 61 180 61q83 0 188 -21l-3 -54q-104 19 -167 19q-64 1 -98 -13t-56 -36t-32 -63q-20 -68 -20 -170q0 -103 7 -153t27 -91t59 -59t108 -18t172 19z"/>
<glyph glyph-name="D" horiz-adv-x="646" unicode="D" d="M523 357q0 282 -183 282h-191v-584h191q183 0 183 302zM340 0h-253v695h253q247 0 247 -338q0 -357 -247 -357z"/>
<glyph glyph-name="E" horiz-adv-x="552" unicode="E" d="M87 0v695h417v-56h-355v-258h295v-55h-295v-271h355v-55h-417z"/>
<glyph glyph-name="F" horiz-adv-x="525" unicode="F" d="M87 0v695h410v-56h-348v-287h296v-55h-296v-297h-62z"/>
<glyph glyph-name="G" horiz-adv-x="617" unicode="G" d="M360 296v55h189v-336q-29 -5 -102 -15t-121 -10q-150 0 -208 88t-58 267q0 89 12 152t42 112q57 96 211 96q94 0 191 -19l33 -7l-3 -53q-125 23 -216 23q-122 -1 -164 -73t-42 -230t42 -229t163 -71q71 0 159 16v234h-128z"/>
<glyph glyph-name="H" horiz-adv-x="675" unicode="H" d="M526 0v321h-377v-321h-62v695h62v-319h377v319h61v-695h-61z"/>
<glyph glyph-name="I" horiz-adv-x="236" unicode="I" d="M87 0v695h62v-695h-62z"/>
<glyph glyph-name="J" horiz-adv-x="285" unicode="J" d="M201 695v-606q1 -57 -9 -89t-36 -48t-54 -20q-29 -4 -84 -4v55q43 1 62 3q20 2 36 14t20 35t4 67v593h61z"/>
<glyph glyph-name="K" horiz-adv-x="563" unicode="K" d="M149 0h-62v695h62v-328l120 3l193 325h71l-210 -349l223 -346h-74l-202 314l-121 -2v-312z"/>
<glyph glyph-name="L" horiz-adv-x="480" unicode="L" d="M467 0h-380v695h62v-639h318v-56z"/>
<glyph glyph-name="M" horiz-adv-x="835" unicode="M" d="M87 0v695h116l215 -608l214 608h116v-695h-62v631h-14l-218 -608h-73l-218 608h-14v-631h-62z"/>
<glyph glyph-name="N" horiz-adv-x="672" unicode="N" d="M87 0v695h122l291 -640h23v640h61v-695h-120l-293 639h-22v-639h-62z"/>
<glyph glyph-name="O" horiz-adv-x="662" unicode="O" d="M544 73q-58 -83 -212 -83t-214 85q-58 85 -58 269t59 272q59 89 212 89q153 -1 213 -89t59 -274t-59 -269zM166 116q42 -70 166 -70t165 68q42 68 42 228t-44 233q-44 74 -164 74q-124 0 -167 -80q-24 -41 -32 -94t-8 -131q0 -158 42 -228z"/>
<glyph glyph-name="P" horiz-adv-x="593" unicode="P" d="M149 297h192q152 0 152 178q0 85 -36 125t-116 40h-192v-343zM341 242h-192v-242h-62v695h254q111 0 163 -54t53 -166q0 -233 -216 -233z"/>
<glyph glyph-name="Q" horiz-adv-x="662" unicode="Q" d="M166 116q42 -70 166 -70t165 68q42 68 42 227q0 160 -44 234t-164 74q-124 0 -167 -80q-24 -41 -32 -94t-8 -131q0 -158 42 -228zM331 -10q-155 0 -213 85t-58 269t59 272q59 89 212 89q153 -1 213 -89t59 -272q-1 -131 -27 -208t-90 -113l85 -138l-59 -28l-87 144 q-39 -11 -94 -11z"/>
<glyph glyph-name="R" horiz-adv-x="615" unicode="R" d="M494 488q0 78 -37 115t-115 37h-193v-311h193q152 0 152 159zM149 274v-274h-62v695h255q108 1 162 -49t54 -157q0 -167 -134 -203l143 -286h-69l-137 274h-212z"/>
<glyph glyph-name="S" horiz-adv-x="541" unicode="S" d="M275 651q-161 0 -161 -123q0 -72 36 -97t144 -46q106 -21 152 -58t45 -124q1 -111 -55 -161t-163 -50q-78 0 -181 14l-36 5l7 53q137 -17 212 -17q75 1 114 37t39 106t-34 96t-110 40t-111 26t-65 32q-30 22 -44 56q-13 34 -13 84q0 182 220 182q66 0 172 -14l33 -5 l-5 -53q-138 17 -196 17z"/>
<glyph glyph-name="T" horiz-adv-x="526" unicode="T" d="M13 639v56h500v-56h-218v-639h-62v639h-220z"/>
<glyph glyph-name="U" horiz-adv-x="642" unicode="U" d="M144 204q0 -158 173 -158q90 0 135 37t45 121v491h62v-491q0 -114 -61 -164q-60 -50 -178 -50t-178 50t-59 164v491h61v-491z"/>
<glyph glyph-name="V" horiz-adv-x="577" unicode="V" d="M487 695h63l-186 -695h-151l-187 695h64l169 -640h59z"/>
<glyph glyph-name="W" horiz-adv-x="874" unicode="W" d="M33 695h63l126 -640h33l146 632h73l145 -632h33l126 640h63l-143 -695h-124l-137 610l-137 -610h-124z"/>
<glyph glyph-name="X" horiz-adv-x="555" unicode="X" d="M91 695l188 -307l187 307h68l-216 -352l216 -343h-70l-186 300l-189 -300h-68l218 342l-218 353h70z"/>
<glyph glyph-name="Y" horiz-adv-x="534" unicode="Y" d="M298 0h-62v294l-223 401h69l185 -337l184 337h70l-223 -401v-294z"/>
<glyph glyph-name="Z" horiz-adv-x="537" unicode="Z" d="M43 639v56h450v-83l-381 -536v-21h381v-56h-450v82l381 536v22h-381z"/>
<glyph glyph-name="bracketleft" horiz-adv-x="322" unicode="[" d="M281 749v-54h-139v-764h139v-54h-200v872h200z"/>
<glyph glyph-name="backslash" horiz-adv-x="421" unicode="\" d="M390 14l-55 -23l-305 690l54 24z"/>
<glyph glyph-name="bracketright" horiz-adv-x="322" unicode="]" d="M41 695v54h200v-872h-200v54h139v764h-139z"/>
<glyph glyph-name="asciicircum" d="M431 320l-153 280l-146 -280h-65l183 340h56l190 -340h-65z" unicode="^"/>
<glyph glyph-name="underscore" horiz-adv-x="635" unicode="_" d="M103 -96h428v-54h-428v54z"/>
<glyph glyph-name="grave" horiz-adv-x="228" unicode="`" d="M25 737l207 -97l-19 -42l-210 87z"/>
<glyph glyph-name="a" horiz-adv-x="499" unicode="a" d="M105 142q0 -101 83 -101q36 1 79 9t68 17l25 9v181l-163 -17q-49 -4 -71 -28t-21 -70zM419 351v-268q4 -37 65 -44l-3 -48q-77 0 -113 40q-94 -41 -188 -41q-67 0 -102 38t-35 110q-1 72 35 106t112 43l170 17v47q0 57 -24 81t-66 24q-64 0 -166 -12l-31 -3l-3 48 q110 21 192 21t120 -39q37 -39 37 -120z"/>
<glyph glyph-name="b" horiz-adv-x="521" unicode="b" d="M134 50q70 -6 112 -6t77 12t53 40t24 66q6 36 6 96q0 106 -26 152t-95 46q-34 0 -72 -8t-59 -18l-20 -8v-372zM290 510q100 0 139 -58t39 -200t-50 -202t-184 -60q-56 0 -134 8l-26 2v722h60v-249q78 37 156 37z"/>
<glyph glyph-name="c" horiz-adv-x="433" unicode="c" d="M261 510q45 0 107 -10l23 -3l-3 -51q-79 10 -117 10q-89 0 -122 -44t-33 -160t30 -162t125 -46l119 9l2 -51q-89 -12 -132 -12q-118 0 -162 59t-44 203t48 201t159 57z"/>
<glyph glyph-name="d" horiz-adv-x="523" unicode="d" d="M192 51q18 -7 48 -7t68 11t60 21l21 11v358q-80 12 -124 12q-85 0 -117 -52t-33 -161q0 -128 39 -167q20 -19 38 -26zM449 722v-722h-60v37q-79 -47 -160 -47q-37 0 -64 8t-55 34q-57 52 -57 200t48 213t162 65q44 0 126 -13v225h60z"/>
<glyph glyph-name="e" horiz-adv-x="504" unicode="e" d="M114 275h282q0 99 -32 141t-104 42t-109 -44t-37 -139zM406 50l30 3l2 -49q-113 -14 -191 -14q-108 1 -151 64t-43 194q0 262 206 262q99 0 148 -56t49 -181l-2 -48h-340q0 -93 32 -137t108 -44t152 6z"/>
<glyph glyph-name="f" horiz-adv-x="324" unicode="f" d="M155 447v-447h-60v447h-65v53h65v51q0 105 29 143t103 38l97 -5v-51q-59 2 -88 2q-47 0 -64 -26t-17 -102v-50h151v-53h-151z"/>
<glyph glyph-name="g" horiz-adv-x="509" unicode="g" d="M148 250q28 -26 94 -27q66 0 95 26q28 25 28 91t-28 93q-29 27 -95 27t-94 -28t-28 -92t28 -90zM113 -79q0 -60 30 -83t116 -23q86 1 123 25t37 82t-27 74q-27 17 -103 17l-113 4q-37 -25 -50 -45t-13 -51zM426 -199q-54 -38 -170 -38q-115 0 -159 33t-44 121q0 41 18 67 t63 59q-25 16 -25 68q0 16 24 63l8 15q-82 34 -82 151q0 170 181 170q51 0 90 -10l15 -3l145 3v-53l-100 2q36 -37 36 -119t-46 -120t-143 -37q-29 0 -51 4q-20 -49 -20 -62q0 -33 20 -41t116 -8q98 0 138 -28t40 -114q0 -85 -54 -123z"/>
<glyph glyph-name="h" horiz-adv-x="533" unicode="h" d="M134 0h-59v722h59v-251q84 39 162 39q100 0 134 -53t33 -194v-263h-60v260q1 116 -21 156t-94 40q-36 0 -74 -8t-59 -18l-21 -8v-422z"/>
<glyph glyph-name="i" horiz-adv-x="209" unicode="i" d="M75 625v75h59v-75h-59zM75 0v500h59v-500h-59z"/>
<glyph glyph-name="j" horiz-adv-x="209" unicode="j" d="M75 625v75h60v-75h-60zM75 10v490h60v-491q-1 -88 -33 -134t-131 -96l-24 48q81 46 105 78t23 105z"/>
<glyph glyph-name="k" horiz-adv-x="470" unicode="k" d="M134 0h-59v722h59v-430l85 2l154 206h69l-171 -229l179 -271h-70l-160 241l-86 -2v-239z"/>
<glyph glyph-name="l" horiz-adv-x="221" unicode="l" d="M81 0v722h59v-722h-59z"/>
<glyph glyph-name="m" horiz-adv-x="835" unicode="m" d="M134 0h-59v500h59v-37q76 47 162 47t122 -53q36 21 88 37t92 16q100 0 134 -52t33 -195v-263h-59v260q0 116 -22 156t-93 40q-36 0 -74 -10t-58 -22l-20 -10q15 -38 15 -154v-260h-60v258q0 118 -22 158t-92 40q-36 0 -72 -10t-55 -22l-19 -10v-414z"/>
<glyph glyph-name="n" horiz-adv-x="533" unicode="n" d="M134 0h-59v500h59v-37q84 47 163 47q99 0 133 -53t34 -194v-263h-60v260q0 116 -22 156t-94 40q-36 0 -74 -10t-59 -22l-21 -10v-414z"/>
<glyph glyph-name="o" horiz-adv-x="527" unicode="o" d="M144 88q28 -46 120 -45q92 0 120 46q28 45 28 163t-32 162t-116 43q-84 0 -116 -43q-32 -44 -32 -162t28 -164zM102 451q48 59 162 59t162 -59t47 -200q1 -141 -43 -201t-166 -60t-166 60t-44 201t48 200z"/>
<glyph glyph-name="p" horiz-adv-x="523" unicode="p" d="M286 456q-33 0 -71 -11t-59 -23l-22 -11v-356q68 -12 118 -12q86 1 121 49t35 160t-30 158t-92 46zM75 -225v725h59v-38q78 48 164 48t130 -61q42 -61 42 -199t-50 -198q-50 -62 -166 -62q-62 0 -120 13v-228h-59z"/>
<glyph glyph-name="q" horiz-adv-x="521" unicode="q" d="M287 457q-101 1 -137 -49t-36 -159t29 -157t100 -48q34 0 70 8t55 16l19 9v374q-68 6 -100 6zM238 -10q-100 0 -142 60t-43 199t51 200t182 61l160 -10v-725h-59v250q-71 -35 -149 -35z"/>
<glyph glyph-name="r" horiz-adv-x="339" unicode="r" d="M75 0v500h59v-72q36 26 90 50t99 32v-60q-43 -10 -90 -28t-73 -32l-26 -15v-375h-59z"/>
<glyph glyph-name="s" horiz-adv-x="464" unicode="s" d="M226 455q-118 0 -118 -85q0 -39 26 -55q26 -15 118 -31t128 -43q38 -27 38 -103t-49 -112t-144 -36q-55 0 -142 14l-29 4l4 53q112 -17 172 -17t94 21t33 71q1 50 -27 66t-118 31q-90 14 -128 40q-37 26 -37 98t51 105t126 33q60 0 150 -13l27 -4l-2 -53q-107 16 -173 16 z"/>
<glyph glyph-name="t" horiz-adv-x="347" unicode="t" d="M328 447h-167v-247q0 -97 14 -127t66 -30l92 7l4 -51q-66 -10 -101 -10q-76 -1 -106 37t-29 144v277h-74v53h74v157h60v-157h167v-53z"/>
<glyph glyph-name="u" horiz-adv-x="525" unicode="u" d="M391 500h59v-500h-59v37q-77 -47 -154 -47q-103 0 -135 52t-32 197v261h59v-260q-1 -116 21 -156t94 -40q35 0 72 10t56 22l19 10v414z"/>
<glyph glyph-name="v" horiz-adv-x="477" unicode="v" d="M27 500h66l125 -448h40l130 448h62l-146 -500h-131z"/>
<glyph glyph-name="w" horiz-adv-x="760" unicode="w" d="M33 500h61l110 -448h14l130 438h63l130 -438h15l110 448h61l-125 -500h-104l-118 412l-119 -412h-103z"/>
<glyph glyph-name="x" horiz-adv-x="446" unicode="x" d="M24 500h67l132 -206l132 206h67l-163 -249l162 -251h-66l-132 205l-132 -205h-67l161 250z"/>
<glyph glyph-name="y" horiz-adv-x="478" unicode="y" d="M27 500h61l133 -448h36l134 448h61l-216 -725h-60l67 225h-69z"/>
<glyph glyph-name="z" horiz-adv-x="455" unicode="z" d="M42 446v54h371v-54l-297 -392h297v-54h-371v54l297 392h-297z"/>
<glyph glyph-name="braceleft" horiz-adv-x="350" unicode="{" d="M183 574l7 -121q0 -63 -22 -93t-81 -48q60 -18 82 -48t22 -94l-7 -117q0 -63 26 -93t99 -34l-2 -53q-99 4 -141 45t-41 131l7 123q0 44 -24 71t-82 43v50q58 13 82 40t24 73l-7 128q0 91 42 131t141 45l1 -52q-72 -5 -99 -35t-27 -92z"/>
<glyph glyph-name="bar" horiz-adv-x="221" unicode="|" d="M80 -225v947h60v-947h-60z"/>
<glyph glyph-name="braceright" horiz-adv-x="350" unicode="}" d="M166 53l-7 117q0 64 22 94t82 48q-59 18 -81 48t-22 93l7 121q0 62 -27 92t-99 35l1 52q99 -5 141 -45t42 -131l-7 -128q0 -46 24 -73t82 -40v-50q-58 -16 -82 -43t-24 -71l7 -123q1 -90 -41 -131t-141 -45l-2 53q73 4 99 34t26 93z"/>
<glyph glyph-name="asciitilde" d="M382 201q-30 0 -105 33t-93 33q-34 0 -88 -37l-17 -12l-11 51q63 54 115 54q29 0 103 -33t94 -33q34 0 86 36l18 12l10 -50q-60 -54 -112 -54z" unicode="~"/>
<glyph glyph-name="uni00A0" horiz-adv-x="220" unicode=" "/>
<glyph glyph-name="exclamdown" horiz-adv-x="219" unicode="¡" d="M137 277l3 -472h-63l4 472h56zM141 500v-100h-66v100h66z"/>
<glyph glyph-name="cent" d="M280 -83v121q-94 4 -135 50t-41 158t42 162t134 55v123h53v-125q39 0 90 -9l17 -3l-2 -50q-80 9 -133 9q-77 0 -107 -36t-30 -125q0 -88 30 -121t115 -33l126 7l3 -51q-66 -8 -108 -10v-122h-54z" unicode="¢"/>
<glyph glyph-name="sterling" d="M440 604q-82 11 -129 11q-47 -1 -65 -31t-18 -122v-49h174v-53h-174v-306h161l79 16l10 -52l-81 -18h-316v54h87v306h-67v53h67v53q0 121 32 162t113 41q47 0 107 -11l21 -4z" unicode="£"/>
<glyph glyph-name="currency" d="M280 130q50 0 86 36t36 86t-36 86t-86 36t-86 -36t-36 -86t36 -86t86 -36zM382 107q-46 -32 -102 -32t-103 32l-69 -70l-43 43l70 69q-32 47 -32 103t32 102l-70 70l43 43l69 -71q49 33 103 33t102 -33l70 71l43 -43l-71 -70q33 -48 33 -102t-33 -103l71 -69l-43 -43z " unicode="¤"/>
<glyph glyph-name="yen" d="M57 321v53h151l-181 286h69l185 -285l182 285h70l-179 -286h148v-53h-180l-10 -20v-78h191v-53h-191v-170h-62v170h-192v53h192v78l-9 20h-184z" unicode="¥"/>
<glyph glyph-name="brokenbar" horiz-adv-x="225" unicode="¦" d="M82 152h60v-377h-60v377zM82 722h60v-375h-60v375z"/>
<glyph glyph-name="section" horiz-adv-x="494" unicode="§" d="M153 367q-37 -55 -37 -99t28 -64t100 -32q70 -12 103 -27q7 9 17 43t10 56q0 49 -28 68q-28 20 -98 32t-95 23zM68 501q0 153 186 153q50 0 135 -12l26 -3l-3 -51q-108 13 -165 13q-120 0 -120 -98q0 -55 31 -75t116 -35q84 -15 122 -43t38 -99q0 -38 -15 -76t-26 -54 q36 -28 36 -97q0 -164 -184 -164q-56 0 -143 12l-29 4l5 51q110 -15 165 -15q128 0 128 109q0 51 -30 67q-29 16 -117 30t-128 46q-40 31 -40 101q0 40 22 77t34 47q-44 33 -44 112z"/>
<glyph glyph-name="dieresis" horiz-adv-x="228" unicode="¨" d="M189 627v80h58v-80h-58zM-8 627v80h59v-80h-59z"/>
<glyph glyph-name="copyright" horiz-adv-x="646" unicode="©" d="M325 278q-63 0 -89 38t-25 118q0 80 25 118t90 38q39 0 65 -6l10 -3l-2 -46q-41 7 -77 7t-48 -25t-13 -82q0 -57 14 -83t52 -26l72 7l2 -45q-39 -10 -76 -10zM102 434q0 -96 63 -164t157 -67q94 0 158 67q64 68 64 164t-64 164t-158 67q-94 1 -157 -67t-63 -164zM136 242 q-74 78 -74 192t74 192t188 78q112 0 186 -78t73 -193q1 -113 -73 -191t-186 -78q-114 0 -188 78z"/>
<glyph glyph-name="ordfeminine" horiz-adv-x="378" unicode="ª" d="M154 499q-44 -3 -44 -45t38 -41q34 0 76 13l14 5v73zM290 564v-136q9 -13 32 -19l-2 -41q-48 0 -72 24q-58 -24 -103 -24t-67 24t-21 63q0 77 88 83l93 6v22q0 26 -12 36t-38 11l-111 -7l-2 40q69 13 117 13q48 1 74 -21q24 -22 24 -74z"/>
<glyph glyph-name="guillemotleft" horiz-adv-x="523" unicode="«" d="M453 350l-129 -99l129 -109v-64l-181 146v51l181 138v-63zM227 350l-129 -99l129 -109v-64l-181 146v51l181 138v-63z"/>
<glyph glyph-name="logicalnot" d="M67 338h426v-218h-57v163h-369v55z" unicode="¬"/>
<glyph glyph-name="registered" horiz-adv-x="646" unicode="®" d="M264 542v-107h67q29 1 42 13t13 41t-17 41t-52 12h-53zM264 394v-111h-48v300h104q57 0 85 -21t28 -72q0 -71 -54 -90l59 -117h-51l-57 111h-66zM102 434q0 -96 63 -164t157 -67q94 0 158 67q64 68 64 164t-64 164t-158 67q-94 1 -157 -67t-63 -164zM136 242 q-74 78 -74 192t74 192t186 78t187 -78q74 -78 74 -193q1 -113 -73 -191t-186 -78q-114 0 -188 78z"/>
<glyph glyph-name="macron" horiz-adv-x="228" unicode="¯" d="M-16 631v49h272v-49h-272z"/>
<glyph glyph-name="degree" d="M185 565q0 -44 26 -70q25 -26 69 -26q44 1 70 27t27 69q-1 43 -27 70t-70 27t-69 -26q-26 -26 -26 -71zM140 565q0 62 39 101t101 39t100 -39t39 -101q-1 -62 -39 -100t-100 -38t-101 38t-39 100z" unicode="°"/>
<glyph glyph-name="plusminus" d="M57 98h446v-56h-446v56zM57 298v56h193v130h57v-130h196v-56h-196v-133h-57v133h-193z" unicode="±"/>
<glyph glyph-name="twosuperior" horiz-adv-x="280" unicode="²" d="M235 478h-203v46l92 95q28 27 40 46t12 42q0 43 -52 43l-87 -9l-2 46q56 12 99 12q96 0 96 -88q0 -34 -14 -58t-48 -57l-69 -70h136v-48z"/>
<glyph glyph-name="threesuperior" horiz-adv-x="280" unicode="³" d="M37 789q56 10 104 10q49 1 73 -19t24 -63q0 -23 -10 -41q-14 -25 -32 -33q26 -8 38 -25t12 -54q0 -96 -103 -96q-37 0 -93 8l-17 3l3 46q56 -8 106 -8t50 48q0 50 -51 50h-65v46h64q16 0 30 15t14 36q0 39 -51 39q-39 0 -79 -6l-14 -2z"/>
<glyph glyph-name="acute" horiz-adv-x="268" unicode="´" d="M31 640l207 97l22 -52l-210 -87z"/>
<glyph glyph-name="mu" d="M410 500h59v-500h-59v37q-77 -47 -151 -47t-111 25v-240h-59v725h59v-260q0 -116 22 -156t93 -40q35 0 72 10t56 22l19 10v414z" unicode="µ"/>
<glyph glyph-name="paragraph" horiz-adv-x="591" unicode="¶" d="M415 0v642h-130v-642h-55v334h-7q-80 0 -133 50t-53 130t53 130q53 51 133 51h329v-53h-82v-642h-55z"/>
<glyph glyph-name="periodcentered" horiz-adv-x="207" unicode="·" d="M71 244v101h66v-101h-66z"/>
<glyph glyph-name="cedilla" horiz-adv-x="263" unicode="¸" d="M218 -127q0 -84 -89 -84l-84 6l2 40q41 -3 71 -3q45 0 45 41q0 37 -45 37h-47v91h38v-53q57 0 83 -16t26 -59z"/>
<glyph glyph-name="onesuperior" horiz-adv-x="280" unicode="¹" d="M188 790v-312h-53v253l-73 -50l-25 40l101 69h50z"/>
<glyph glyph-name="ordmasculine" horiz-adv-x="370" unicode="º" d="M185 418q39 0 55 22t17 74q0 52 -16 74q-15 22 -55 21q-40 1 -57 -21t-17 -74t17 -74t56 -22zM185 659q63 0 95 -35t32 -109q0 -147 -127 -147q-129 0 -129 146t129 145z"/>
<glyph glyph-name="guillemotright" horiz-adv-x="523" unicode="»" d="M198 251l-128 99v63l181 -138v-51l-181 -146v64zM424 251l-128 99v63l181 -138v-51l-181 -146v64z"/>
<glyph glyph-name="onequarter" horiz-adv-x="531" unicode="¼" d="M412 -100v51h-142v46l76 215h58l-78 -212h86l4 88h49v-88h31v-49h-31v-51h-53zM36 28l392 631l36 -23l-392 -630zM192 790v-312h-53v253l-73 -50l-25 40l101 69h50z"/>
<glyph glyph-name="onehalf" horiz-adv-x="525" unicode="½" d="M479 -100h-203v46l92 95q28 27 40 46t12 42q0 43 -52 43l-87 -9l-2 46q56 12 99 12q96 0 96 -88q0 -34 -14 -58t-48 -57l-69 -70h136v-48zM34 28l392 631l36 -23l-392 -630zM197 790v-312h-53v253l-73 -50l-25 40l101 69h50z"/>
<glyph glyph-name="threequarters" horiz-adv-x="547" unicode="¾" d="M430 -100v51h-142v46l76 215h58l-78 -212h86l4 88h49v-88h31v-49h-31v-51h-53zM54 28l392 631l36 -23l-392 -630zM57 789q56 10 104 10q49 1 73 -19t24 -63q0 -23 -10 -41q-14 -25 -32 -33q26 -8 38 -25t12 -54q0 -96 -103 -96q-37 0 -93 8l-17 3l3 46q56 -8 106 -8 t50 48q0 50 -51 50h-65v46h64q16 0 30 15t14 36q0 39 -51 39q-39 0 -79 -6l-14 -2z"/>
<glyph glyph-name="questiondown" horiz-adv-x="443" unicode="¿" d="M288 500v-100h-66v100h66zM40 -44q0 62 18 96t72 80t76 74t22 62v36h52q9 -26 9 -58q-1 -32 -25 -64t-76 -78t-70 -72q-17 -27 -17 -79t35 -77t110 -25q41 0 128 19l28 6l6 -51q-106 -29 -167 -29q-101 0 -151 38t-50 122z"/>
<glyph glyph-name="Agrave" horiz-adv-x="594" unicode="À" d="M190 928l207 -99l-20 -43l-209 88zM270 641l-113 -394h280l-113 394h-54zM25 0l200 695h145l199 -695h-61l-56 192h-310l-55 -192h-62z"/>
<glyph glyph-name="Aacute" horiz-adv-x="594" unicode="Á" d="M192 829l207 99l22 -54l-209 -88zM270 641l-113 -394h280l-113 394h-54zM25 0l200 695h145l199 -695h-61l-56 192h-310l-55 -192h-62z"/>
<glyph glyph-name="Acircumflex" horiz-adv-x="594" unicode="Â" d="M136 798l134 131h52l134 -131h-69l-90 86l-91 -86h-70zM270 641l-113 -394h280l-113 394h-54zM25 0l200 695h145l199 -695h-61l-56 192h-310l-55 -192h-62z"/>
<glyph glyph-name="Atilde" horiz-adv-x="594" unicode="Ã" d="M373 814q-19 0 -81 28t-74 29q-23 0 -60 -37l-13 -13l-15 46q47 56 85 56q27 1 87 -27t72 -28q19 0 55 34l12 12l15 -45q-46 -55 -83 -55zM270 641l-113 -394h280l-113 394h-54zM25 0l200 695h145l199 -695h-61l-56 192h-310l-55 -192h-62z"/>
<glyph glyph-name="Adieresis" horiz-adv-x="594" unicode="Ä" d="M368 819v80h58v-80h-58zM167 819v80h59v-80h-59zM270 641l-113 -394h280l-113 394h-54zM25 0l200 695h145l199 -695h-61l-56 192h-310l-55 -192h-62z"/>
<glyph glyph-name="Aring" horiz-adv-x="594" unicode="Å" d="M232 750q0 -47 44 -55h38q44 8 44 55q0 28 -16 42t-47 14t-47 -14t-16 -42zM270 641l-113 -394h280l-113 394h-54zM374 823q30 -27 31 -73q0 -46 -30 -74l194 -676h-61l-56 192h-310l-55 -192h-62l193 673q-33 27 -33 75q1 48 31 75t79 27t79 -27z"/>
<glyph glyph-name="AE" horiz-adv-x="877" unicode="Æ" d="M412 249v390h-111l-132 -390h243zM412 0v190h-260l-66 -190h-64l234 697h572v-58h-355v-252h295v-58h-295v-271h355v-58h-416z"/>
<glyph glyph-name="Ccedilla" horiz-adv-x="544" unicode="Ç" d="M432 -127q0 -84 -89 -84l-84 6l2 40q41 -3 71 -3q45 0 45 41q0 37 -45 37h-47v81q-133 8 -180 102q-23 48 -33 107q-10 58 -10 138t6 132t22 100q16 46 44 74q59 61 180 61q83 0 188 -21l-3 -54q-104 19 -167 19q-64 1 -98 -13t-56 -36t-32 -63q-20 -68 -20 -170 q0 -103 7 -153t27 -91t59 -59t108 -18t172 19l3 -54q-92 -20 -179 -21v-42q57 0 83 -16t26 -59z"/>
<glyph glyph-name="Egrave" horiz-adv-x="552" unicode="È" d="M199 928l207 -99l-20 -43l-209 88zM87 0v695h417v-56h-355v-258h295v-55h-295v-271h355v-55h-417z"/>
<glyph glyph-name="Eacute" horiz-adv-x="552" unicode="É" d="M182 829l207 99l22 -54l-209 -88zM87 0v695h417v-56h-355v-258h295v-55h-295v-271h355v-55h-417z"/>
<glyph glyph-name="Ecircumflex" horiz-adv-x="552" unicode="Ê" d="M132 798l134 131h52l134 -131h-69l-90 86l-91 -86h-70zM87 0v695h417v-56h-355v-258h295v-55h-295v-271h355v-55h-417z"/>
<glyph glyph-name="Edieresis" horiz-adv-x="552" unicode="Ë" d="M366 819v80h58v-80h-58zM165 819v80h59v-80h-59zM87 0v695h417v-56h-355v-258h295v-55h-295v-271h355v-55h-417z"/>
<glyph glyph-name="Igrave" horiz-adv-x="236" unicode="Ì" d="M3 928l207 -99l-20 -43l-209 88zM87 0v695h62v-695h-62z"/>
<glyph glyph-name="Iacute" horiz-adv-x="236" unicode="Í" d="M14 829l207 99l22 -54l-209 -88zM87 0v695h62v-695h-62z"/>
<glyph glyph-name="Icircumflex" horiz-adv-x="236" unicode="Î" d="M-47 798l134 131h52l134 -131h-69l-90 86l-91 -86h-70zM87 0v695h62v-695h-62z"/>
<glyph glyph-name="Idieresis" horiz-adv-x="236" unicode="Ï" d="M189 819v80h58v-80h-58zM-12 819v80h59v-80h-59zM87 0v695h62v-695h-62z"/>
<glyph glyph-name="Eth" horiz-adv-x="649" unicode="Ð" d="M526 359q0 280 -184 280h-191v-261h165v-58h-165v-262h191q52 0 90 26t57 70q37 83 37 205zM19 320v58h71v319h252q248 0 248 -338q0 -359 -248 -359h-252v320h-71z"/>
<glyph glyph-name="Ntilde" horiz-adv-x="672" unicode="Ñ" d="M414 814q-20 0 -82 28t-74 29q-22 0 -60 -37l-12 -13l-15 46q47 56 85 56q26 1 87 -27t72 -28q19 0 55 34l12 12l15 -45q-46 -55 -83 -55zM87 0v695h122l291 -640h23v640h61v-695h-120l-293 639h-22v-639h-62z"/>
<glyph glyph-name="Ograve" horiz-adv-x="662" unicode="Ò" d="M232 928l207 -99l-20 -43l-209 88zM544 73q-58 -83 -212 -83t-214 85q-58 85 -58 269t59 272q59 89 212 89q153 -1 213 -89t59 -274t-59 -269zM166 116q42 -70 166 -70t165 68q42 68 42 228t-44 233q-44 74 -164 74q-124 0 -167 -80q-24 -41 -32 -94t-8 -131 q0 -158 42 -228z"/>
<glyph glyph-name="Oacute" horiz-adv-x="662" unicode="Ó" d="M206 829l207 99l22 -54l-209 -88zM544 73q-58 -83 -212 -83t-214 85q-58 85 -58 269t59 272q59 89 212 89q153 -1 213 -89t59 -274t-59 -269zM166 116q42 -70 166 -70t165 68q42 68 42 228t-44 233q-44 74 -164 74q-124 0 -167 -80q-24 -41 -32 -94t-8 -131 q0 -158 42 -228z"/>
<glyph glyph-name="Ocircumflex" horiz-adv-x="662" unicode="Ô" d="M171 798l134 131h52l134 -131h-69l-90 86l-91 -86h-70zM544 73q-58 -83 -212 -83t-214 85q-58 85 -58 269t59 272q59 89 212 89q153 -1 213 -89t59 -274t-59 -269zM166 116q42 -70 166 -70t165 68q42 68 42 228t-44 233q-44 74 -164 74q-124 0 -167 -80q-24 -41 -32 -94 t-8 -131q0 -158 42 -228z"/>
<glyph glyph-name="Otilde" horiz-adv-x="662" unicode="Õ" d="M408 814q-20 0 -82 28t-74 29q-22 0 -60 -37l-12 -13l-15 46q47 56 85 56q26 1 87 -27t72 -28q19 0 55 34l12 12l15 -45q-46 -55 -83 -55zM544 73q-58 -83 -212 -83t-214 85q-58 85 -58 269t59 272q59 89 212 89q153 -1 213 -89t59 -274t-59 -269zM166 116 q42 -70 166 -70t165 68q42 68 42 228t-44 233q-44 74 -164 74q-124 0 -167 -80q-24 -41 -32 -94t-8 -131q0 -158 42 -228z"/>
<glyph glyph-name="Odieresis" horiz-adv-x="662" unicode="Ö" d="M403 819v80h58v-80h-58zM202 819v80h59v-80h-59zM544 73q-58 -83 -212 -83t-214 85q-58 85 -58 269t59 272q59 89 212 89q153 -1 213 -89t59 -274t-59 -269zM166 116q42 -70 166 -70t165 68q42 68 42 228t-44 233q-44 74 -164 74q-124 0 -167 -80q-24 -41 -32 -94 t-8 -131q0 -158 42 -228z"/>
<glyph glyph-name="multiply" d="M114 456l166 -168l166 168l39 -39l-168 -166l168 -166l-39 -40l-166 168l-166 -167l-39 39l167 166l-167 165z" unicode="×"/>
<glyph glyph-name="Oslash" horiz-adv-x="662" unicode="Ø" d="M331 46q124 0 166 68t42 241t-59 240l-249 -533q39 -16 100 -16zM132 475q-8 -53 -8 -141t14 -149t49 -95l252 537q-43 22 -107 22q-64 1 -105 -19t-63 -61q-24 -41 -32 -94zM331 -10q-71 0 -125 19l-57 -123l-47 21l59 126q-55 39 -78 115t-23 196q0 183 59 272t212 89 q79 0 133 -24l54 115l47 -19l-58 -123q96 -77 96 -310q-1 -188 -59 -271t-213 -83z"/>
<glyph glyph-name="Ugrave" horiz-adv-x="642" unicode="Ù" d="M223 928l207 -99l-20 -43l-209 88zM144 204q0 -158 173 -158q90 0 135 37t45 121v491h62v-491q0 -114 -61 -164q-60 -50 -178 -50t-178 50t-59 164v491h61v-491z"/>
<glyph glyph-name="Uacute" horiz-adv-x="642" unicode="Ú" d="M205 829l207 99l22 -54l-209 -88zM144 204q0 -158 173 -158q90 0 135 37t45 121v491h62v-491q0 -114 -61 -164q-60 -50 -178 -50t-178 50t-59 164v491h61v-491z"/>
<glyph glyph-name="Ucircumflex" horiz-adv-x="642" unicode="Û" d="M160 798l134 131h52l134 -131h-69l-90 86l-91 -86h-70zM144 204q0 -158 173 -158q90 0 135 37t45 121v491h62v-491q0 -114 -61 -164q-60 -50 -178 -50t-178 50t-59 164v491h61v-491z"/>
<glyph glyph-name="Udieresis" horiz-adv-x="642" unicode="Ü" d="M392 819v80h58v-80h-58zM191 819v80h59v-80h-59zM144 204q0 -158 173 -158q90 0 135 37t45 121v491h62v-491q0 -114 -61 -164q-60 -50 -178 -50t-178 50t-59 164v491h61v-491z"/>
<glyph glyph-name="Yacute" horiz-adv-x="534" unicode="Ý" d="M175 829l207 99l22 -54l-209 -88zM298 0h-62v294l-223 401h69l185 -337l184 337h70l-223 -401v-294z"/>
<glyph glyph-name="Thorn" horiz-adv-x="600" unicode="Þ" d="M341 126h-192v-126h-62v697h62v-116h192q111 0 163 -53t53 -166q1 -112 -53 -174t-163 -62zM341 185q153 0 153 178q0 83 -36 121t-117 39h-192v-338h192z"/>
<glyph glyph-name="germandbls" horiz-adv-x="564" unicode="ß" d="M134 0h-59v551q0 101 43 141t143 40q101 0 143 -33t42 -108q0 -51 -18 -81t-58 -48t-50 -26q-12 -10 -12 -25t16 -28t82 -45q64 -32 92 -66q28 -32 28 -92q0 -102 -46 -146t-154 -44q-47 0 -104 10l-21 3l3 52q82 -10 118 -10q79 1 110 31t31 86t-22 79q-21 25 -87 57 t-87 54t-21 55q0 35 18 53t56 35t50 37t13 62q-1 42 -27 63q-26 20 -96 20t-98 -28t-28 -108v-541z"/>
<glyph glyph-name="agrave" horiz-adv-x="499" unicode="à" d="M147 737l207 -97l-19 -42l-210 87zM105 142q0 -101 83 -101q36 1 79 9t68 17l25 9v181l-163 -17q-49 -4 -71 -28t-21 -70zM419 351v-268q4 -37 65 -44l-3 -48q-77 0 -113 40q-94 -41 -188 -41q-67 0 -102 38t-35 110q-1 72 35 106t112 43l170 17v47q0 57 -24 81t-66 24 q-64 0 -166 -12l-31 -3l-3 48q110 21 192 21t120 -39q37 -39 37 -120z"/>
<glyph glyph-name="aacute" horiz-adv-x="499" unicode="á" d="M123 640l207 97l22 -52l-210 -87zM105 142q0 -101 83 -101q36 1 79 9t68 17l25 9v181l-163 -17q-49 -4 -71 -28t-21 -70zM419 351v-268q4 -37 65 -44l-3 -48q-77 0 -113 40q-94 -41 -188 -41q-67 0 -102 38t-35 110q-1 72 35 106t112 43l170 17v47q0 57 -24 81t-66 24 q-64 0 -166 -12l-31 -3l-3 48q110 21 192 21t120 -39q37 -39 37 -120z"/>
<glyph glyph-name="acircumflex" horiz-adv-x="499" unicode="â" d="M98 595l122 137h42l123 -137h-63l-80 92l-81 -92h-63zM105 142q0 -101 83 -101q36 1 79 9t68 17l25 9v181l-163 -17q-49 -4 -71 -28t-21 -70zM419 351v-268q4 -37 65 -44l-3 -48q-77 0 -113 40q-94 -41 -188 -41q-67 0 -102 38t-35 110q-1 72 35 106t112 43l170 17v47 q0 57 -24 81t-66 24q-64 0 -166 -12l-31 -3l-3 48q110 21 192 21t120 -39q37 -39 37 -120z"/>
<glyph glyph-name="atilde" horiz-adv-x="499" unicode="ã" d="M311 619q-21 1 -74 25t-65 24q-24 0 -62 -30l-13 -11l-15 40q50 50 88 50q20 0 74 -24t66 -24q21 0 56 29l12 10l14 -42q-45 -47 -81 -47zM105 142q0 -101 83 -101q36 1 79 9t68 17l25 9v181l-163 -17q-49 -4 -71 -28t-21 -70zM419 351v-268q4 -37 65 -44l-3 -48 q-77 0 -113 40q-94 -41 -188 -41q-67 0 -102 38t-35 110q-1 72 35 106t112 43l170 17v47q0 57 -24 81t-66 24q-64 0 -166 -12l-31 -3l-3 48q110 21 192 21t120 -39q37 -39 37 -120z"/>
<glyph glyph-name="adieresis" horiz-adv-x="499" unicode="ä" d="M312 627v80h58v-80h-58zM115 627v80h59v-80h-59zM105 142q0 -101 83 -101q36 1 79 9t68 17l25 9v181l-163 -17q-49 -4 -71 -28t-21 -70zM419 351v-268q4 -37 65 -44l-3 -48q-77 0 -113 40q-94 -41 -188 -41q-67 0 -102 38t-35 110q-1 72 35 106t112 43l170 17v47 q0 57 -24 81t-66 24q-64 0 -166 -12l-31 -3l-3 48q110 21 192 21t120 -39q37 -39 37 -120z"/>
<glyph glyph-name="aring" horiz-adv-x="499" unicode="å" d="M212 688q-16 -18 -17 -42q1 -24 17 -42t40 -17q24 -1 42 17q16 18 16 42t-16 42q-16 17 -42 17q-24 0 -40 -17zM181 575q-29 29 -29 71t29 72q29 29 71 29t72 -29q29 -30 29 -72t-29 -71q-30 -29 -72 -29t-71 29zM105 142q0 -101 83 -101q36 1 79 9t68 17l25 9v181 l-163 -17q-49 -4 -71 -28t-21 -70zM419 351v-268q4 -37 65 -44l-3 -48q-77 0 -113 40q-94 -41 -188 -41q-67 0 -102 38t-35 110q-1 72 35 106t112 43l170 17v47q0 57 -24 81t-66 24q-64 0 -166 -12l-31 -3l-3 48q110 21 192 21t120 -39q37 -39 37 -120z"/>
<glyph glyph-name="ae" horiz-adv-x="809" unicode="æ" d="M419 275h282q-1 97 -33 139t-103 42q-146 0 -146 -181zM183 43q89 0 198 42q-23 55 -23 169l-161 -15q-48 -5 -70 -27t-22 -70q1 -48 21 -74t57 -25zM559 45q49 0 153 7l29 2l2 -50q-112 -14 -190 -14q-99 0 -146 56l-34 -15q-92 -41 -197 -41q-133 0 -133 151 q1 79 41 109t141 41l135 13v45q0 103 -96 103q-66 0 -159 -8l-31 -2l-2 54q116 13 194 13q108 0 136 -81q49 81 163 81q99 -1 148 -57t49 -179l-3 -48h-340q1 -92 33 -136t107 -44z"/>
<glyph glyph-name="ccedilla" horiz-adv-x="433" unicode="ç" d="M355 -127q0 -84 -89 -84l-84 6l2 40q41 -3 71 -3q45 0 45 41q0 37 -45 37h-47v83q-88 11 -121 71t-33 196t48 193t159 57q45 0 107 -10l23 -3l-3 -51q-79 10 -117 10q-89 0 -122 -44t-33 -160t30 -162t125 -46l119 9l2 -51q-89 -12 -132 -12h-14v-42q58 0 84 -16t25 -59z "/>
<glyph glyph-name="egrave" horiz-adv-x="504" unicode="è" d="M145 738l207 -97l-19 -42l-210 87zM114 275h282q0 99 -32 141t-104 42t-109 -44t-37 -139zM406 50l30 3l2 -49q-113 -14 -191 -14q-108 1 -151 64t-43 194q0 262 206 262q99 0 148 -56t49 -181l-2 -48h-340q0 -93 32 -137t108 -44t152 6z"/>
<glyph glyph-name="eacute" horiz-adv-x="504" unicode="é" d="M154 640l207 97l22 -52l-210 -87zM114 275h282q0 99 -32 141t-104 42t-109 -44t-37 -139zM406 50l30 3l2 -49q-113 -14 -191 -14q-108 1 -151 64t-43 194q0 262 206 262q99 0 148 -56t49 -181l-2 -48h-340q0 -93 32 -137t108 -44t152 6z"/>
<glyph glyph-name="ecircumflex" horiz-adv-x="504" unicode="ê" d="M118 595l122 137h42l123 -137h-63l-80 92l-81 -92h-63zM114 275h282q0 99 -32 141t-104 42t-109 -44t-37 -139zM406 50l30 3l2 -49q-113 -14 -191 -14q-108 1 -151 64t-43 194q0 262 206 262q99 0 148 -56t49 -181l-2 -48h-340q0 -93 32 -137t108 -44t152 6z"/>
<glyph glyph-name="edieresis" horiz-adv-x="504" unicode="ë" d="M325 627v80h58v-80h-58zM128 627v80h59v-80h-59zM114 275h282q0 99 -32 141t-104 42t-109 -44t-37 -139zM406 50l30 3l2 -49q-113 -14 -191 -14q-108 1 -151 64t-43 194q0 262 206 262q99 0 148 -56t49 -181l-2 -48h-340q0 -93 32 -137t108 -44t152 6z"/>
<glyph glyph-name="igrave" horiz-adv-x="209" unicode="ì" d="M-38 737l207 -97l-19 -42l-210 87zM75 0v500h59v-500h-59z"/>
<glyph glyph-name="iacute" horiz-adv-x="209" unicode="í" d="M75 500h59v-500h-59v500zM40 640l207 97l22 -52l-210 -87z"/>
<glyph glyph-name="icircumflex" horiz-adv-x="209" unicode="î" d="M-40 595l122 137h42l123 -137h-63l-80 92l-81 -92h-63zM75 500h59v-500h-59v500z"/>
<glyph glyph-name="idieresis" horiz-adv-x="209" unicode="ï" d="M170 627v80h58v-80h-58zM-27 627v80h59v-80h-59zM75 500h59v-500h-59v500z"/>
<glyph glyph-name="eth" horiz-adv-x="543" unicode="ð" d="M426 334q-100 39 -170 39q-70 -1 -110 -45t-40 -120t40 -118q40 -44 122 -44t120 63q37 63 38 225zM326 648q162 -100 162 -296t-52 -278t-173 -83q-104 -1 -162 57t-58 160t55 162q55 58 153 58q63 0 147 -30l27 -9q-7 141 -149 225l-120 -80l-29 39l100 67 q-57 26 -128 45l14 47q95 -22 165 -57l102 68l29 -39z"/>
<glyph glyph-name="ntilde" horiz-adv-x="533" unicode="ñ" d="M350 619q-21 1 -74 25t-66 24q-23 0 -61 -30l-13 -11l-15 40q50 50 88 50q21 0 75 -24t64 -24q22 0 57 29l12 10l14 -42q-45 -47 -81 -47zM75 0v500h59v-37l23 11q23 12 64 24t76 12q99 0 133 -53t34 -194v-263h-60v260q0 116 -22 156t-97 40t-151 -42v-414h-59z"/>
<glyph glyph-name="ograve" horiz-adv-x="527" unicode="ò" d="M168 737l207 -97l-19 -42l-210 87zM144 88q28 -46 120 -45q92 0 120 46q28 45 28 163t-32 162t-116 43q-84 0 -116 -43q-32 -44 -32 -162t28 -164zM102 451q48 59 162 59t162 -59t47 -200q1 -141 -43 -201t-166 -60t-166 60t-44 201t48 200z"/>
<glyph glyph-name="oacute" horiz-adv-x="527" unicode="ó" d="M163 640l207 97l22 -52l-210 -87zM384 89q28 45 28 163t-32 162t-116 43q-84 0 -116 -43q-32 -44 -32 -162t28 -164t120 -45q92 0 120 46zM426 451q48 -59 47 -200q1 -141 -43 -201t-166 -60t-166 60t-44 201t48 200t162 59t162 -59z"/>
<glyph glyph-name="ocircumflex" horiz-adv-x="527" unicode="ô" d="M119 595l122 137h42l123 -137h-63l-80 92l-81 -92h-63zM384 89q28 45 28 163t-32 162t-116 43q-84 0 -116 -43q-32 -44 -32 -162t28 -164t120 -45q92 0 120 46zM426 451q48 -59 47 -200q1 -141 -43 -201t-166 -60t-166 60t-44 201t48 200t162 59t162 -59z"/>
<glyph glyph-name="otilde" horiz-adv-x="527" unicode="õ" d="M337 619q-21 1 -74 25t-65 24q-24 0 -62 -30l-13 -11l-15 40q50 50 88 50q20 0 74 -24t66 -24q21 0 56 29l12 10l14 -42q-45 -47 -81 -47zM384 89q28 45 28 163t-32 162t-116 43q-84 0 -116 -43q-32 -44 -32 -162t28 -164t120 -45q92 0 120 46zM426 451q48 -59 47 -200 q1 -141 -43 -201t-166 -60t-166 60t-44 201t48 200t162 59t162 -59z"/>
<glyph glyph-name="odieresis" horiz-adv-x="527" unicode="ö" d="M329 627v80h58v-80h-58zM132 627v80h59v-80h-59zM384 89q28 45 28 163t-32 162t-116 43q-84 0 -116 -43q-32 -44 -32 -162t28 -164t120 -45q92 0 120 46zM426 451q48 -59 47 -200q1 -141 -43 -201t-166 -60t-166 60t-44 201t48 200t162 59t162 -59z"/>
<glyph glyph-name="divide" d="M249 33v93h61v-93h-61zM208 335v90h144v-90h-144zM97 263v59h366v-59h-366z" unicode="÷"/>
<glyph glyph-name="oslash" horiz-adv-x="527" unicode="ø" d="M264 43q92 0 120 46q28 45 28 175t-50 168l-157 -383q24 -6 59 -6zM264 457q-84 0 -116 -43q-32 -44 -32 -142t10 -142t40 -65l156 385q-22 7 -58 7zM264 510q45 0 78 -9l43 104l43 -15l-44 -105q89 -49 89 -228q1 -147 -43 -207t-166 -60q-44 0 -79 8l-45 -111l-42 15 l44 111q-48 25 -68 83t-20 161q0 135 48 194t162 59z"/>
<glyph glyph-name="ugrave" horiz-adv-x="525" unicode="ù" d="M140 737l207 -97l-19 -42l-210 87zM391 500h59v-500h-59v37q-77 -47 -154 -47q-103 0 -135 52t-32 197v261h59v-260q-1 -116 21 -156t94 -40q35 0 72 10t56 22l19 10v414z"/>
<glyph glyph-name="uacute" horiz-adv-x="525" unicode="ú" d="M161 640l207 97l22 -52l-210 -87zM450 500v-500h-59v37l-21 -11q-22 -12 -60 -24t-73 -12q-103 0 -135 52t-32 197v261h59v-260q-1 -116 21 -156t98 -40t143 42v414h59z"/>
<glyph glyph-name="ucircumflex" horiz-adv-x="525" unicode="û" d="M111 595l122 137h42l123 -137h-63l-80 92l-81 -92h-63zM450 500v-500h-59v37l-21 -11q-22 -12 -60 -24t-73 -12q-103 0 -135 52t-32 197v261h59v-260q-1 -116 21 -156t98 -40t143 42v414h59z"/>
<glyph glyph-name="udieresis" horiz-adv-x="525" unicode="ü" d="M335 627v80h58v-80h-58zM138 627v80h59v-80h-59zM450 500v-500h-59v37l-21 -11q-22 -12 -60 -24t-73 -12q-103 0 -135 52t-32 197v261h59v-260q-1 -116 21 -156t98 -40t143 42v414h59z"/>
<glyph glyph-name="yacute" horiz-adv-x="478" unicode="ý" d="M161 640l207 97l22 -52l-210 -87zM27 500h61l133 -448h36l134 448h61l-216 -725h-60l67 225h-69z"/>
<glyph glyph-name="thorn" horiz-adv-x="522" unicode="þ" d="M290 510q100 0 139 -58t39 -199q0 -143 -48 -203t-179 -60l-107 7v-222h-59v947h59v-249q79 37 156 37zM237 43q104 1 137 49t33 160q1 112 -25 158t-96 46q-34 0 -72 -8t-59 -18l-21 -8v-373q70 -6 103 -6z"/>
<glyph glyph-name="OE" horiz-adv-x="930" unicode="Œ" d="M226 68q42 -18 98 -18t149 8v579q-128 11 -142 11q-121 0 -164 -70t-43 -232q0 -80 8 -132t30 -90t64 -56zM882 -1h-408q-92 -9 -148 -9q-154 0 -210 84t-56 272q0 186 58 274t208 87q85 0 147 -10h409v-60h-348v-250h288v-60h-288v-267h348v-61z"/>
<glyph glyph-name="oe" horiz-adv-x="863" unicode="œ" d="M473 275h282q-1 97 -33 139t-104 42q-145 0 -145 -181zM144 90q28 -46 120 -46t120 48t28 160t-35 157q-35 46 -116 46q-81 -1 -113 -43t-32 -158q0 -118 28 -164zM612 45q50 0 154 7l29 2l2 -50q-113 -14 -191 -14q-123 0 -165 97q-19 -51 -61 -74t-115 -23 q-123 0 -167 60t-44 202q0 140 48 198t163 59q69 0 113 -26t66 -84q45 110 174 110q99 -1 148 -57t49 -179l-2 -48h-340q-1 -92 31 -136t108 -44z"/>
<glyph glyph-name="Scaron" horiz-adv-x="541" unicode="Š" d="M253 798l-134 131h69l91 -86l90 86h70l-134 -131h-52zM275 651q-161 0 -161 -123q0 -72 36 -97t144 -46q106 -21 152 -58t45 -124q1 -111 -55 -161t-163 -50q-78 0 -181 14l-36 5l7 53q137 -17 212 -17q75 1 114 37t39 106t-34 96t-110 40t-111 26t-65 32q-30 22 -44 56 q-13 34 -13 84q0 182 220 182q66 0 172 -14l33 -5l-5 -53q-138 17 -196 17z"/>
<glyph glyph-name="scaron" horiz-adv-x="464" unicode="š" d="M219 595l-122 137h62l82 -91l81 91h62l-123 -137h-42zM226 455q-118 0 -118 -85q0 -39 26 -55q26 -15 118 -31t128 -43q38 -27 38 -103t-49 -112t-144 -36q-55 0 -142 14l-29 4l4 53q112 -17 172 -17t94 21t33 71q1 50 -27 66t-118 31q-90 14 -128 40q-37 26 -37 98 t51 105t126 33q60 0 150 -13l27 -4l-2 -53q-107 16 -173 16z"/>
<glyph glyph-name="Ydieresis" horiz-adv-x="534" unicode="Ÿ" d="M337 819v80h58v-80h-58zM136 819v80h59v-80h-59zM298 0h-62v294l-223 401h69l185 -337l184 337h70l-223 -401v-294z"/>
<glyph glyph-name="circumflex" horiz-adv-x="228" unicode="ˆ" d="M-17 595l122 137h42l123 -137h-63l-80 92l-81 -92h-63z"/>
<glyph glyph-name="tilde" horiz-adv-x="228" unicode="˜" d="M197 619q-21 1 -74 25t-65 24q-24 0 -62 -30l-13 -11l-15 40q50 50 88 50q20 0 74 -24t66 -24q21 0 56 29l12 10l14 -42q-45 -47 -81 -47z"/>
<glyph glyph-name="pi" d="M369 154v293h-175l-28 -447h-61l31 447q-61 0 -101 -10l-12 -3v52q58 14 140 14h231q63 0 119 12l17 3v-52q-29 -12 -102 -14v-295q0 -64 18 -84t74 -20v-53q-91 0 -121 31t-30 126z" unicode="π"/>
<glyph glyph-name="endash" horiz-adv-x="636" unicode="–" d="M68 295h500v-54h-500v54z"/>
<glyph glyph-name="emdash" horiz-adv-x="1136" unicode="—" d="M68 295h1000v-54h-1000v54z"/>
<glyph glyph-name="quoteleft" horiz-adv-x="209" unicode="‘" d="M161 715l-42 -211h-64l58 211h48z"/>
<glyph glyph-name="quotesinglbase" horiz-adv-x="208" unicode="‚" d="M105 56l-21 -105h-32l29 105h24z"/>
<glyph glyph-name="quotedblleft" horiz-adv-x="355" unicode="“" d="M161 715l-42 -211h-64l58 211h48zM307 715l-42 -211h-64l58 211h48z"/>
<glyph glyph-name="quotedblright" horiz-adv-x="361" unicode="”" d="M211 504l42 211h64l-58 -211h-48zM57 504l42 211h64l-58 -211h-48z"/>
<glyph glyph-name="dagger" horiz-adv-x="478" unicode="†" d="M35 446v54h174v195h60v-195h173v-54h-173l-4 -523h-53l-3 523h-174z"/>
<glyph glyph-name="daggerdbl" horiz-adv-x="523" unicode="‡" d="M232 -77v195h-174v52h174v276h-174v54h174v195h59v-195h174v-54h-174v-276h174v-52h-174v-195h-59z"/>
<glyph glyph-name="ellipsis" horiz-adv-x="715" unicode="…" d="M579 0v101h66v-101h-66zM324 0v101h66v-101h-66zM70 0v101h66v-101h-66z"/>
<glyph glyph-name="perthousand" horiz-adv-x="832" unicode="‰" d="M631 131q1 -97 57 -97t56 96q0 48 -13 70t-43 23q-30 0 -44 -22q-13 -22 -13 -70zM580 131q0 136 108 136t107 -137q0 -70 -29 -105t-79 -35q-51 0 -79 35t-28 106zM373 131q0 -97 57 -97q30 0 43 24t13 72t-12 71q-12 22 -44 22q-31 0 -44 -22t-13 -70zM322 131 q0 136 108 136t107 -137q-1 -70 -29 -105t-78 -35t-80 35q-28 35 -28 106zM40 534q0 136 108 136t107 -137q0 -70 -29 -105t-79 -35q-51 0 -79 35t-28 106zM171 -3l197 679l42 -13l-198 -678zM104 604q-13 -22 -13 -70q0 -97 56 -97q31 -1 44 23t13 72t-13 72q-13 22 -43 22 t-44 -22z"/>
<glyph glyph-name="guilsinglleft" horiz-adv-x="297" unicode="‹" d="M227 350l-129 -99l129 -109v-64l-181 146v51l181 138v-63z"/>
<glyph glyph-name="guilsinglright" horiz-adv-x="297" unicode="›" d="M198 254l-128 98v63l181 -138v-51l-181 -146v65z"/>
<glyph glyph-name="fraction" horiz-adv-x="0" unicode="⁄" d="M-224 28l392 631l36 -23l-392 -630z"/>
<glyph glyph-name="Euro" d="M30 383v51h66q11 120 64 178t172 58q82 0 178 -20l-3 -51q-93 18 -177 18q-84 -1 -124 -45t-49 -138h299v-51h-302q-1 -19 -1 -53t1 -49h302v-51h-300q9 -98 49 -142t125 -44t177 18l3 -52q-102 -20 -178 -20q-119 0 -172 59t-64 181h-66v51h63q-1 15 -1 49t1 53h-63z " unicode="€"/>
<glyph glyph-name="trademark" horiz-adv-x="682" unicode="™" d="M327 331v296h63l73 -221l77 221h63v-296h-45v237l-74 -224h-40l-73 224v-237h-44zM94 584v43h200v-43h-72v-252h-47v252h-81z"/>
<glyph glyph-name="partialdiff" d="M432 342q-88 32 -164 32t-116 -44t-39 -121q0 -77 40 -121t121 -43q81 0 119 73t39 224zM266 732q118 0 174 -86t55 -280q1 -193 -53 -284t-172 -91q-104 -1 -162 57t-58 161t56 161t152 58q71 0 149 -24l25 -7q-4 149 -44 215t-132 66q-32 0 -72 -12t-62 -24l-24 -11 l-4 49q33 20 83 36t89 16z" unicode="∂"/>
<glyph glyph-name="product" d="M394 -158v855h-229v-855h-62v855h-73v55h500v-55h-74v-855h-62z" unicode="∏"/>
<glyph glyph-name="summation" d="M47 752h463v-56h-399v-24l267 -340v-46l-267 -361v-28h399v-55h-463v91l274 377l-274 352v90z" unicode="∑"/>
<glyph glyph-name="minus" d="M67 223v56h426v-56h-426z" unicode="−"/>
<glyph glyph-name="radical" d="M5 392v55h111l137 -532h9l243 859h61l-260 -912h-99l-142 530h-60z" unicode="√"/>
<glyph glyph-name="infinity" d="M403 176q67 0 67 116t-67 116q-41 0 -64 -38q-11 -18 -23 -45t-14 -33q4 -7 12 -27t12 -28q4 -9 13 -23t17 -20q22 -18 47 -18zM156 408q-66 0 -66 -116t66 -116q38 0 56 22t30 56t15 38q-3 6 -10 24t-10 24l-10 20t-13 20t-15 14q-16 14 -43 14zM152 121 q-121 0 -121 171q0 82 30 126q29 44 83 45q54 0 84 -28t52 -86q22 58 52 86t83 28q54 -1 84 -45t30 -126q0 -171 -122 -171q-45 -1 -75 27t-52 85q-24 -65 -51 -89t-77 -23z" unicode="∞"/>
<glyph glyph-name="approxequal" d="M381 95q-29 0 -105 33t-94 33q-18 -1 -44 -13t-44 -24l-18 -12l-11 51q64 54 116 54q29 0 104 -33t93 -33t45 12q26 12 43 24l18 12l10 -50q-60 -54 -113 -54zM381 271q-29 0 -105 33t-94 33q-18 -1 -44 -13t-44 -24l-18 -12l-11 51q64 54 116 54q29 0 104 -33t93 -33 t45 12q26 12 43 24l18 12l10 -50q-60 -54 -113 -54z" unicode="≈"/>
<glyph glyph-name="notequal" d="M65 312v56h243l68 156l50 -20l-60 -136h128v-56h-152l-54 -123h206v-56h-230l-67 -154l-50 20l58 134h-140v56h165l53 123h-218z" unicode="≠"/>
<glyph glyph-name="lessequal" d="M65 23v55h423v-55h-423zM488 431l-351 -115l351 -125v-61l-423 156v56l423 151v-62z" unicode="≤"/>
<glyph glyph-name="greaterequal" d="M494 78v-55h-423v55h423zM422 316l-351 115v62l423 -151v-56l-423 -156v61z" unicode="≥"/>
<glyph glyph-name="lozenge" d="M292 162h-25l-3 3h30zM56 330l174 165h34l-143 -165l143 -165h-34zM264 495l3 3h25l2 -3h-30zM294 165l145 165l-145 165h36l174 -165l-174 -165h-36z" unicode="◊"/>
</font>
</defs>
</svg>
